<?xml version="1.0" encoding="UTF-8"?><svg xmlns="http://www.w3.org/2000/svg" xmlns:xlink="http://www.w3.org/1999/xlink" fill-opacity="1" color-rendering="auto" color-interpolation="auto" text-rendering="auto" stroke="black" stroke-linecap="square" width="1491" stroke-miterlimit="10" shape-rendering="auto" stroke-opacity="1" fill="black" stroke-dasharray="none" font-weight="normal" stroke-width="1" height="949" font-family="'Dialog'" font-style="normal" stroke-linejoin="miter" font-size="12px" stroke-dashoffset="0" image-rendering="auto">
  <!--Generated by ySVG 2.5-->
  <defs id="genericDefs"/>
  <g>
    <defs id="defs1">
      <clipPath clipPathUnits="userSpaceOnUse" id="clipPath1">
        <path d="M0 0 L1491 0 L1491 949 L0 949 L0 0 Z"/>
      </clipPath>
      <clipPath clipPathUnits="userSpaceOnUse" id="clipPath2">
        <path d="M2770 -712 L4044.4785 -712 L4044.4785 99.1872 L2770 99.1872 L2770 -712 Z"/>
      </clipPath>
    </defs>
    <g fill="white" text-rendering="geometricPrecision" shape-rendering="geometricPrecision" transform="scale(1.1699,1.1699) translate(-2770,712)" stroke="white">
      <rect x="2770" width="1275" height="812" y="-712" clip-path="url(#clipPath2)" stroke="none"/>
    </g>
    <g text-rendering="geometricPrecision" stroke-miterlimit="1.45" font-size="14px" shape-rendering="geometricPrecision" transform="matrix(1.1699,0,0,1.1699,-3240.5958,832.9618)" stroke-linecap="butt">
      <text x="3342.3638" xml:space="preserve" y="-449.0027" clip-path="url(#clipPath2)" stroke="none">cap:Sensing</text>
      <ellipse rx="70.1569" fill="none" ry="24.5" clip-path="url(#clipPath2)" cx="3384.962" cy="-453.8494"/>
      <text x="2878.5972" xml:space="preserve" y="-317.7449" clip-path="url(#clipPath2)" stroke="none">cap:Battery</text>
      <text x="2891.7871" xml:space="preserve" y="-301.4481" clip-path="url(#clipPath2)" stroke="none">Sensing</text>
      <ellipse rx="70.1569" fill="none" ry="24.5" clip-path="url(#clipPath2)" cx="2919.4454" cy="-314.4432"/>
      <text x="3494.1365" xml:space="preserve" y="-209.0156" clip-path="url(#clipPath2)" stroke="none">cap:Depth</text>
      <text x="3502.7395" xml:space="preserve" y="-192.7187" clip-path="url(#clipPath2)" stroke="none">Sensing</text>
      <ellipse rx="70.1569" fill="none" ry="24.5" clip-path="url(#clipPath2)" cx="3530.3976" cy="-205.7138"/>
      <text x="3525.8018" xml:space="preserve" y="-317.7449" clip-path="url(#clipPath2)" stroke="none">cap:GPS</text>
      <text x="3527.1724" xml:space="preserve" y="-301.4481" clip-path="url(#clipPath2)" stroke="none">Sensing</text>
      <ellipse rx="70.1569" fill="none" ry="24.5" clip-path="url(#clipPath2)" cx="3554.8306" cy="-314.4432"/>
      <text x="3656.9255" xml:space="preserve" y="-317.7449" clip-path="url(#clipPath2)" stroke="none">cap:Humidity</text>
      <text x="3675.9465" xml:space="preserve" y="-301.4481" clip-path="url(#clipPath2)" stroke="none">Sensing</text>
      <ellipse rx="70.1569" fill="none" ry="24.5" clip-path="url(#clipPath2)" cx="3703.6048" cy="-314.4432"/>
      <text x="3207.1172" xml:space="preserve" y="-209.0156" clip-path="url(#clipPath2)" stroke="none">cap:Light</text>
      <text x="3211.8682" xml:space="preserve" y="-192.7187" clip-path="url(#clipPath2)" stroke="none">Sensing</text>
      <ellipse rx="70.1569" fill="none" ry="24.5" clip-path="url(#clipPath2)" cx="3239.5264" cy="-205.7138"/>
      <text x="3166.2476" xml:space="preserve" y="-317.7449" clip-path="url(#clipPath2)" stroke="none">cap:Magnetic</text>
      <text x="3168.917" xml:space="preserve" y="-301.4481" clip-path="url(#clipPath2)" stroke="none">FieldSensing</text>
      <ellipse rx="70.1569" fill="none" ry="24.5" clip-path="url(#clipPath2)" cx="3213.2411" cy="-314.4432"/>
      <text x="3324.3374" xml:space="preserve" y="-209.0156" clip-path="url(#clipPath2)" stroke="none">cap:Temperature</text>
      <text x="3357.3037" xml:space="preserve" y="-192.7187" clip-path="url(#clipPath2)" stroke="none">Sensing</text>
      <ellipse rx="70.1569" fill="none" ry="24.5" clip-path="url(#clipPath2)" cx="3384.962" cy="-205.7138"/>
      <text x="3820.0928" xml:space="preserve" y="-317.7449" clip-path="url(#clipPath2)" stroke="none">cap:Time</text>
      <text x="3824.7207" xml:space="preserve" y="-301.4481" clip-path="url(#clipPath2)" stroke="none">Sensing</text>
      <ellipse rx="70.1569" fill="none" ry="24.5" clip-path="url(#clipPath2)" cx="3852.3789" cy="-314.4432"/>
      <text x="3030.3589" xml:space="preserve" y="-309.5965" clip-path="url(#clipPath2)" stroke="none">cap:Vision</text>
      <ellipse rx="70.1569" fill="none" ry="24.5" clip-path="url(#clipPath2)" cx="3066.3432" cy="-314.4432"/>
      <text x="3334.9468" xml:space="preserve" y="-570.8719" clip-path="url(#clipPath2)" stroke="none">cap:Capability</text>
      <ellipse rx="70.1569" fill="none" ry="24.5" clip-path="url(#clipPath2)" cx="3384.962" cy="-575.7186"/>
      <path fill="none" d="M2919.4453 -338.9432 L3377.1086 -427.8243" clip-path="url(#clipPath2)"/>
      <path d="M3384.9619 -429.3494 L3372.2288 -431.97 L3376.127 -427.6336 L3374.1353 -422.1534 Z" clip-path="url(#clipPath2)" stroke="none"/>
      <rect x="2864.0614" y="-357.3124" clip-path="url(#clipPath2)" fill="white" width="96.0039" height="17.9688" stroke="none"/>
      <text x="2866.0613" xml:space="preserve" font-size="12px" y="-344.1737" clip-path="url(#clipPath2)" stroke="none">rdfs:subclassOf</text>
      <path fill="none" d="M3530.3977 -230.2138 L3389.6804 -422.889" clip-path="url(#clipPath2)"/>
      <path d="M3384.9619 -429.3493 L3388.002 -416.7098 L3390.2703 -422.0814 L3396.0774 -422.6078 Z" clip-path="url(#clipPath2)" stroke="none"/>
      <rect x="3489.6162" y="-246.2982" clip-path="url(#clipPath2)" fill="white" width="96.0039" height="17.9688" stroke="none"/>
      <text x="3491.6162" xml:space="preserve" font-size="12px" y="-233.1595" clip-path="url(#clipPath2)" stroke="none">rdfs:subclassOf</text>
      <path fill="none" d="M3554.8306 -338.9432 L3392.0242 -425.5909" clip-path="url(#clipPath2)"/>
      <path d="M3384.9619 -429.3494 L3393.2061 -419.2978 L3392.9067 -425.1211 L3397.9041 -428.1255 Z" clip-path="url(#clipPath2)" stroke="none"/>
      <rect x="3514.811" y="-355.5066" clip-path="url(#clipPath2)" fill="white" width="96.0039" height="17.9688" stroke="none"/>
      <text x="3516.811" xml:space="preserve" font-size="12px" y="-342.368" clip-path="url(#clipPath2)" stroke="none">rdfs:subclassOf</text>
      <path fill="none" d="M3703.6047 -338.9432 L3392.6582 -427.1658" clip-path="url(#clipPath2)"/>
      <path d="M3384.9619 -429.3494 L3395.1416 -421.2639 L3393.6201 -426.8929 L3397.8711 -430.8842 Z" clip-path="url(#clipPath2)" stroke="none"/>
      <rect x="3663.1707" y="-356.7643" clip-path="url(#clipPath2)" fill="white" width="96.0039" height="17.9688" stroke="none"/>
      <text x="3665.1707" xml:space="preserve" font-size="12px" y="-343.6256" clip-path="url(#clipPath2)" stroke="none">rdfs:subclassOf</text>
      <path fill="none" d="M3239.5264 -230.2138 L3380.2437 -422.889" clip-path="url(#clipPath2)"/>
      <path d="M3384.9619 -429.3495 L3373.8467 -422.6077 L3379.6538 -422.0814 L3381.9224 -416.7098 Z" clip-path="url(#clipPath2)" stroke="none"/>
      <rect x="3190.5803" y="-249.9448" clip-path="url(#clipPath2)" fill="white" width="96.0039" height="17.9688" stroke="none"/>
      <text x="3192.5803" xml:space="preserve" font-size="12px" y="-236.8061" clip-path="url(#clipPath2)" stroke="none">rdfs:subclassOf</text>
      <path fill="none" d="M3213.2412 -338.9432 L3377.8831 -425.6226" clip-path="url(#clipPath2)"/>
      <path d="M3384.9619 -429.3494 L3372.0144 -428.1834 L3376.9983 -425.1567 L3376.6729 -419.3348 Z" clip-path="url(#clipPath2)" stroke="none"/>
      <rect x="3162.7526" y="-357.9405" clip-path="url(#clipPath2)" fill="white" width="96.0039" height="17.9688" stroke="none"/>
      <text x="3164.7527" xml:space="preserve" font-size="12px" y="-344.8019" clip-path="url(#clipPath2)" stroke="none">rdfs:subclassOf</text>
      <path fill="none" d="M3384.9619 -230.2138 L3384.9619 -421.3494" clip-path="url(#clipPath2)"/>
      <path d="M3384.9619 -429.3494 L3379.9619 -417.3494 L3384.9619 -420.3494 L3389.9619 -417.3494 Z" clip-path="url(#clipPath2)" stroke="none"/>
      <rect x="3344.0607" y="-249.1732" clip-path="url(#clipPath2)" fill="white" width="96.0039" height="17.9688" stroke="none"/>
      <text x="3346.0608" xml:space="preserve" font-size="12px" y="-236.0345" clip-path="url(#clipPath2)" stroke="none">rdfs:subclassOf</text>
      <path fill="none" d="M3852.3789 -338.9432 L3392.8164 -427.8303" clip-path="url(#clipPath2)"/>
      <path d="M3384.9619 -429.3494 L3395.7942 -422.1617 L3393.7981 -427.6404 L3397.6931 -431.9797 Z" clip-path="url(#clipPath2)" stroke="none"/>
      <rect x="3811.6877" y="-357.3304" clip-path="url(#clipPath2)" fill="white" width="96.0039" height="17.9688" stroke="none"/>
      <text x="3813.6877" xml:space="preserve" font-size="12px" y="-344.1918" clip-path="url(#clipPath2)" stroke="none">rdfs:subclassOf</text>
      <path fill="none" d="M3066.3433 -338.9432 L3377.2659 -427.1657" clip-path="url(#clipPath2)"/>
      <path d="M3384.9622 -429.3495 L3372.053 -430.8839 L3376.304 -426.8927 L3374.7827 -421.2637 Z" clip-path="url(#clipPath2)" stroke="none"/>
      <rect x="3016.2615" y="-358.1904" clip-path="url(#clipPath2)" fill="white" width="96.0039" height="17.9688" stroke="none"/>
      <text x="3018.2615" xml:space="preserve" font-size="12px" y="-345.0517" clip-path="url(#clipPath2)" stroke="none">rdfs:subclassOf</text>
      <path fill="none" d="M3384.9619 -478.3494 L3384.9619 -543.2186" clip-path="url(#clipPath2)"/>
      <path d="M3384.9619 -551.2186 L3379.9619 -539.2186 L3384.9619 -542.2186 L3389.9619 -539.2186 Z" clip-path="url(#clipPath2)" stroke="none"/>
      <rect x="3347.6211" y="-488.2824" clip-path="url(#clipPath2)" fill="white" width="96.0039" height="17.9688" stroke="none"/>
      <text x="3349.6211" xml:space="preserve" font-size="12px" y="-475.1437" clip-path="url(#clipPath2)" stroke="none">rdfs:subclassOf</text>
    </g>
  </g>
</svg>
