<?xml version="1.0" encoding="UTF-8"?><svg xmlns="http://www.w3.org/2000/svg" xmlns:xlink="http://www.w3.org/1999/xlink" fill-opacity="1" color-rendering="auto" color-interpolation="auto" text-rendering="auto" stroke="black" stroke-linecap="square" width="1491" stroke-miterlimit="10" shape-rendering="auto" stroke-opacity="1" fill="black" stroke-dasharray="none" font-weight="normal" stroke-width="1" height="949" font-family="'Dialog'" font-style="normal" stroke-linejoin="miter" font-size="12px" stroke-dashoffset="0" image-rendering="auto">
  <!--Generated by ySVG 2.5-->
  <defs id="genericDefs"/>
  <g>
    <defs id="defs1">
      <clipPath clipPathUnits="userSpaceOnUse" id="clipPath1">
        <path d="M0 0 L1491 0 L1491 949 L0 949 L0 0 Z"/>
      </clipPath>
      <clipPath clipPathUnits="userSpaceOnUse" id="clipPath2">
        <path d="M-156 515 L1118.4786 515 L1118.4786 1326.1873 L-156 1326.1873 L-156 515 Z"/>
      </clipPath>
    </defs>
    <g fill="white" text-rendering="geometricPrecision" shape-rendering="geometricPrecision" transform="scale(1.1699,1.1699) translate(156,-515)" stroke="white">
      <rect x="-156" width="1275" height="812" y="515" clip-path="url(#clipPath2)" stroke="none"/>
    </g>
    <g text-rendering="geometricPrecision" stroke-miterlimit="1.45" font-size="14px" shape-rendering="geometricPrecision" transform="matrix(1.1699,0,0,1.1699,182.5029,-602.4934)" stroke-linecap="butt">
      <text x="235.8576" xml:space="preserve" y="655.407" clip-path="url(#clipPath2)" stroke="none">cap:Capability</text>
      <ellipse rx="59.0475" fill="none" ry="24.5" clip-path="url(#clipPath2)" cx="285.8727" cy="650.5604"/>
      <text x="233.8547" xml:space="preserve" y="794.8133" clip-path="url(#clipPath2)" stroke="none">cap:Movement</text>
      <ellipse rx="61.657" fill="none" ry="24.5" clip-path="url(#clipPath2)" cx="285.8727" cy="789.9666"/>
      <text x="91.2148" xml:space="preserve" y="926.0711" clip-path="url(#clipPath2)" stroke="none">cap:Translational</text>
      <text x="114.4809" xml:space="preserve" y="942.368" clip-path="url(#clipPath2)" stroke="none">Movement</text>
      <ellipse rx="70.1569" fill="none" ry="24.5" clip-path="url(#clipPath2)" cx="151.559" cy="929.3729"/>
      <text x="178.7647" xml:space="preserve" y="1065.4774" clip-path="url(#clipPath2)" stroke="none">cap:Directional</text>
      <text x="194.6377" xml:space="preserve" y="1081.7743" clip-path="url(#clipPath2)" stroke="none">Movement</text>
      <ellipse rx="70.1569" fill="none" ry="24.5" clip-path="url(#clipPath2)" cx="231.7159" cy="1068.7791"/>
      <text x="395.092" xml:space="preserve" y="926.0711" clip-path="url(#clipPath2)" stroke="none">cap:BodyPart</text>
      <text x="404.758" xml:space="preserve" y="942.368" clip-path="url(#clipPath2)" stroke="none">Movement</text>
      <ellipse rx="70.1569" fill="none" ry="24.5" clip-path="url(#clipPath2)" cx="441.8361" cy="929.3729"/>
      <text x="168.3331" xml:space="preserve" y="1213.0321" clip-path="url(#clipPath2)" stroke="none">cap:Teleoperation</text>
      <ellipse rx="70.1569" fill="none" ry="24.5" clip-path="url(#clipPath2)" cx="231.7159" cy="1208.1854"/>
      <text x="18.7073" xml:space="preserve" y="1073.6259" clip-path="url(#clipPath2)" stroke="none">cap:Navigation</text>
      <ellipse rx="70.1569" fill="none" ry="24.5" clip-path="url(#clipPath2)" cx="71.4022" cy="1068.7791"/>
      <text x="485.6422" xml:space="preserve" y="1065.4774" clip-path="url(#clipPath2)" stroke="none">cap:Hand</text>
      <text x="481.9371" xml:space="preserve" y="1081.7743" clip-path="url(#clipPath2)" stroke="none">Movement</text>
      <ellipse rx="59.0475" fill="none" ry="24.5" clip-path="url(#clipPath2)" cx="519.0152" cy="1068.7791"/>
      <text x="353.3304" xml:space="preserve" y="1065.4774" clip-path="url(#clipPath2)" stroke="none">cap:Leg</text>
      <text x="343.8421" xml:space="preserve" y="1081.7743" clip-path="url(#clipPath2)" stroke="none">Movement</text>
      <ellipse rx="59.0475" fill="none" ry="24.5" clip-path="url(#clipPath2)" cx="380.9202" cy="1068.7791"/>
      <path fill="none" d="M285.8727 765.4666 L285.8727 683.0604" clip-path="url(#clipPath2)"/>
      <path d="M285.8727 675.0604 L280.8727 687.0604 L285.8727 684.0604 L290.8727 687.0604 Z" clip-path="url(#clipPath2)" stroke="none"/>
      <rect x="237.8708" y="745.7791" clip-path="url(#clipPath2)" fill="white" width="96.0039" height="17.9688" stroke="none"/>
      <text x="239.8708" xml:space="preserve" font-size="12px" y="758.9178" clip-path="url(#clipPath2)" stroke="none">rdfs:subclassOf</text>
      <path fill="none" d="M151.559 904.8729 L279.2361 818.9337" clip-path="url(#clipPath2)"/>
      <path d="M285.8727 814.4666 L273.1258 817.0193 L278.4065 819.4921 L278.7097 825.3152 Z" clip-path="url(#clipPath2)" stroke="none"/>
      <rect x="103.9749" y="884.9041" clip-path="url(#clipPath2)" fill="white" width="96.0039" height="17.9688" stroke="none"/>
      <text x="105.9749" xml:space="preserve" font-size="12px" y="898.0428" clip-path="url(#clipPath2)" stroke="none">rdfs:subclassOf</text>
      <path fill="none" d="M231.7159 1044.2792 L156.8664 959.8588" clip-path="url(#clipPath2)"/>
      <path d="M151.559 953.8729 L155.7788 966.1689 L157.5298 960.6071 L163.2613 959.5347 Z" clip-path="url(#clipPath2)" stroke="none"/>
      <rect x="183.4646" y="1024.3104" clip-path="url(#clipPath2)" fill="white" width="96.0039" height="17.9688" stroke="none"/>
      <text x="185.4646" xml:space="preserve" font-size="12px" y="1037.4491" clip-path="url(#clipPath2)" stroke="none">rdfs:subclassOf</text>
      <path fill="none" d="M441.8361 904.8729 L292.794 818.4786" clip-path="url(#clipPath2)"/>
      <path d="M285.8727 814.4666 L293.7471 824.8104 L293.6591 818.9801 L298.7621 816.1589 Z" clip-path="url(#clipPath2)" stroke="none"/>
      <rect x="392.0624" y="884.5985" clip-path="url(#clipPath2)" fill="white" width="96.0039" height="17.9688" stroke="none"/>
      <text x="394.0624" xml:space="preserve" font-size="12px" y="897.7371" clip-path="url(#clipPath2)" stroke="none">rdfs:subclassOf</text>
      <path fill="none" d="M231.7159 1183.6854 L231.7159 1101.2792" clip-path="url(#clipPath2)"/>
      <path d="M231.7159 1093.2792 L226.7159 1105.2792 L231.7159 1102.2792 L236.7159 1105.2792 Z" clip-path="url(#clipPath2)" stroke="none"/>
      <rect x="183.7139" y="1163.7166" clip-path="url(#clipPath2)" fill="white" width="96.0039" height="17.9688" stroke="none"/>
      <text x="185.7139" xml:space="preserve" font-size="12px" y="1176.8553" clip-path="url(#clipPath2)" stroke="none">rdfs:subclassOf</text>
      <path fill="none" d="M71.4022 1044.2792 L146.2517 959.8588" clip-path="url(#clipPath2)"/>
      <path d="M151.559 953.8729 L139.8568 959.5347 L145.5882 960.6071 L147.3392 966.1689 Z" clip-path="url(#clipPath2)" stroke="none"/>
      <rect x="23.6496" y="1024.3104" clip-path="url(#clipPath2)" fill="white" width="96.0039" height="17.9688" stroke="none"/>
      <text x="25.6496" xml:space="preserve" font-size="12px" y="1037.4491" clip-path="url(#clipPath2)" stroke="none">rdfs:subclassOf</text>
      <path fill="none" d="M519.0152 1044.2792 L447.0303 959.9573" clip-path="url(#clipPath2)"/>
      <path d="M441.8361 953.8729 L445.8247 966.2458 L447.6796 960.7178 L453.4302 959.7531 Z" clip-path="url(#clipPath2)" stroke="none"/>
      <rect x="468.5773" y="1023.9701" clip-path="url(#clipPath2)" fill="white" width="96.0039" height="17.9688" stroke="none"/>
      <text x="470.5773" xml:space="preserve" font-size="12px" y="1037.1088" clip-path="url(#clipPath2)" stroke="none">rdfs:subclassOf</text>
      <path fill="none" d="M380.9202 1044.2792 L437.3658 960.5073" clip-path="url(#clipPath2)"/>
      <path d="M441.8361 953.8729 L430.9841 961.0306 L436.807 961.3366 L439.2772 966.6185 Z" clip-path="url(#clipPath2)" stroke="none"/>
      <rect x="333.7545" y="1024.2105" clip-path="url(#clipPath2)" fill="white" width="96.0039" height="17.9688" stroke="none"/>
      <text x="335.7545" xml:space="preserve" font-size="12px" y="1037.3492" clip-path="url(#clipPath2)" stroke="none">rdfs:subclassOf</text>
    </g>
  </g>
</svg>
