<?xml version="1.0" encoding="UTF-8"?><svg xmlns="http://www.w3.org/2000/svg" xmlns:xlink="http://www.w3.org/1999/xlink" fill-opacity="1" color-rendering="auto" color-interpolation="auto" text-rendering="auto" stroke="black" stroke-linecap="square" width="1491" stroke-miterlimit="10" shape-rendering="auto" stroke-opacity="1" fill="black" stroke-dasharray="none" font-weight="normal" stroke-width="1" height="949" font-family="'Dialog'" font-style="normal" stroke-linejoin="miter" font-size="12px" stroke-dashoffset="0" image-rendering="auto">
  <!--Generated by ySVG 2.5-->
  <defs id="genericDefs"/>
  <g>
    <defs id="defs1">
      <clipPath clipPathUnits="userSpaceOnUse" id="clipPath1">
        <path d="M0 0 L1491 0 L1491 949 L0 949 L0 0 Z"/>
      </clipPath>
      <clipPath clipPathUnits="userSpaceOnUse" id="clipPath2">
        <path d="M-298 -700 L976.4786 -700 L976.4786 111.1872 L-298 111.1872 L-298 -700 Z"/>
      </clipPath>
    </defs>
    <g fill="white" text-rendering="geometricPrecision" shape-rendering="geometricPrecision" transform="scale(1.1699,1.1699) translate(298,700)" stroke="white">
      <rect x="-298" width="1275" height="812" y="-700" clip-path="url(#clipPath2)" stroke="none"/>
    </g>
    <g text-rendering="geometricPrecision" stroke-miterlimit="1.45" font-size="14px" shape-rendering="geometricPrecision" transform="matrix(1.1699,0,0,1.1699,348.6273,818.9231)" stroke-linecap="butt">
      <text x="245.7311" xml:space="preserve" y="-451.8889" clip-path="url(#clipPath2)" stroke="none">cap:Robot</text>
      <text x="242.8088" xml:space="preserve" y="-435.592" clip-path="url(#clipPath2)" stroke="none">Knowledge</text>
      <ellipse rx="70.1569" fill="none" ry="24.5" clip-path="url(#clipPath2)" cx="281.2883" cy="-448.5871"/>
      <text x="572.2033" xml:space="preserve" y="-311.5217" clip-path="url(#clipPath2)" stroke="none">cap:Map</text>
      <text x="548.2844" xml:space="preserve" y="-295.2248" clip-path="url(#clipPath2)" stroke="none">Representation</text>
      <ellipse rx="70.1569" fill="none" ry="24.5" clip-path="url(#clipPath2)" cx="601.9157" cy="-308.2199"/>
      <text x="-81.3802" xml:space="preserve" y="-319.6701" clip-path="url(#clipPath2)" stroke="none">cap:Internal</text>
      <text x="-92.9705" xml:space="preserve" y="-303.3733" clip-path="url(#clipPath2)" stroke="none">Representation</text>
      <text x="-61.2586" xml:space="preserve" y="-287.0764" clip-path="url(#clipPath2)" stroke="none">Shape</text>
      <ellipse rx="70.1569" fill="none" ry="24.5" clip-path="url(#clipPath2)" cx="-39.3392" cy="-308.2199"/>
      <text x="85.4174" xml:space="preserve" y="-311.5217" clip-path="url(#clipPath2)" stroke="none">cap:Robot</text>
      <text x="93.4702" xml:space="preserve" y="-295.2248" clip-path="url(#clipPath2)" stroke="none">Position</text>
      <ellipse rx="70.1569" fill="none" ry="24.5" clip-path="url(#clipPath2)" cx="120.9746" cy="-308.2199"/>
      <text x="406.0449" xml:space="preserve" y="-311.5217" clip-path="url(#clipPath2)" stroke="none">cap:Robot</text>
      <text x="419.6586" xml:space="preserve" y="-295.2248" clip-path="url(#clipPath2)" stroke="none">Speed</text>
      <ellipse rx="70.1569" fill="none" ry="24.5" clip-path="url(#clipPath2)" cx="441.602" cy="-308.2199"/>
      <text x="-16.3068" xml:space="preserve" y="-172.1154" clip-path="url(#clipPath2)" stroke="none">cap:Odombased</text>
      <text x="-7.3039" xml:space="preserve" y="-155.8186" clip-path="url(#clipPath2)" stroke="none">RobotPosition</text>
      <ellipse rx="70.1569" fill="none" ry="24.5" clip-path="url(#clipPath2)" cx="40.8177" cy="-168.8137"/>
      <text x="151.834" xml:space="preserve" y="-172.1154" clip-path="url(#clipPath2)" stroke="none">cap:IMUbased</text>
      <text x="153.0098" xml:space="preserve" y="-155.8186" clip-path="url(#clipPath2)" stroke="none">RobotPosition</text>
      <ellipse rx="70.1569" fill="none" ry="24.5" clip-path="url(#clipPath2)" cx="201.1314" cy="-168.8137"/>
      <text x="304.3206" xml:space="preserve" y="-172.1154" clip-path="url(#clipPath2)" stroke="none">cap:Odombased</text>
      <text x="318.8846" xml:space="preserve" y="-155.8186" clip-path="url(#clipPath2)" stroke="none">RobotSpeed</text>
      <ellipse rx="70.1569" fill="none" ry="24.5" clip-path="url(#clipPath2)" cx="361.4451" cy="-168.8137"/>
      <text x="472.4615" xml:space="preserve" y="-172.1154" clip-path="url(#clipPath2)" stroke="none">cap:IMUbased</text>
      <text x="479.1983" xml:space="preserve" y="-155.8186" clip-path="url(#clipPath2)" stroke="none">RobotSpeed</text>
      <ellipse rx="70.1569" fill="none" ry="24.5" clip-path="url(#clipPath2)" cx="521.7589" cy="-168.8137"/>
      <text x="231.2731" xml:space="preserve" y="-583.1467" clip-path="url(#clipPath2)" stroke="none">cap:Capability</text>
      <ellipse rx="59.0475" fill="none" ry="24.5" clip-path="url(#clipPath2)" cx="281.2883" cy="-587.9934"/>
      <path fill="none" d="M601.9157 -332.7199 L288.982 -421.8947" clip-path="url(#clipPath2)"/>
      <path d="M281.2883 -424.0871 L291.4586 -415.9899 L289.9437 -421.6206 L294.1991 -425.607 Z" clip-path="url(#clipPath2)" stroke="none"/>
      <path fill="none" d="M-39.3392 -332.7199 L273.5946 -421.8947" clip-path="url(#clipPath2)"/>
      <path d="M281.2883 -424.0871 L268.3774 -425.607 L272.6328 -421.6206 L271.118 -415.9899 Z" clip-path="url(#clipPath2)" stroke="none"/>
      <rect x="-86.3541" y="-353.6496" clip-path="url(#clipPath2)" fill="white" width="96.0039" height="17.9688" stroke="none"/>
      <text x="-84.3541" xml:space="preserve" font-size="12px" y="-340.511" clip-path="url(#clipPath2)" stroke="none">rdfs:subclassOf</text>
      <path fill="none" d="M120.9746 -332.7199 L274.3378 -420.1259" clip-path="url(#clipPath2)"/>
      <path d="M281.2883 -424.0871 L268.3868 -422.4893 L273.469 -419.6307 L273.3384 -413.8012 Z" clip-path="url(#clipPath2)" stroke="none"/>
      <rect x="73.4661" y="-352.6887" clip-path="url(#clipPath2)" fill="white" width="96.0039" height="17.9688" stroke="none"/>
      <text x="75.4661" xml:space="preserve" font-size="12px" y="-339.55" clip-path="url(#clipPath2)" stroke="none">rdfs:subclassOf</text>
      <path fill="none" d="M441.602 -332.7199 L288.2387 -420.1259" clip-path="url(#clipPath2)"/>
      <path d="M281.2883 -424.0871 L289.2382 -413.8012 L289.1075 -419.6307 L294.1897 -422.4893 Z" clip-path="url(#clipPath2)" stroke="none"/>
      <rect x="393.1066" y="-352.6887" clip-path="url(#clipPath2)" fill="white" width="96.0039" height="17.9688" stroke="none"/>
      <text x="395.1066" xml:space="preserve" font-size="12px" y="-339.55" clip-path="url(#clipPath2)" stroke="none">rdfs:subclassOf</text>
      <path fill="none" d="M40.8177 -193.3137 L115.6672 -277.7339" clip-path="url(#clipPath2)"/>
      <path d="M120.9746 -283.7199 L109.2723 -278.058 L115.0038 -276.9857 L116.7548 -271.4239 Z" clip-path="url(#clipPath2)" stroke="none"/>
      <rect x="-6.9349" y="-213.2824" clip-path="url(#clipPath2)" fill="white" width="96.0039" height="17.9688" stroke="none"/>
      <text x="-4.9349" xml:space="preserve" font-size="12px" y="-200.1438" clip-path="url(#clipPath2)" stroke="none">rdfs:subclassOf</text>
      <path fill="none" d="M201.1314 -193.3137 L126.2819 -277.7339" clip-path="url(#clipPath2)"/>
      <path d="M120.9746 -283.7199 L125.1943 -271.4239 L126.9453 -276.9857 L132.6768 -278.058 Z" clip-path="url(#clipPath2)" stroke="none"/>
      <rect x="152.8801" y="-213.2824" clip-path="url(#clipPath2)" fill="white" width="96.0039" height="17.9688" stroke="none"/>
      <text x="154.8801" xml:space="preserve" font-size="12px" y="-200.1438" clip-path="url(#clipPath2)" stroke="none">rdfs:subclassOf</text>
      <path fill="none" d="M361.4451 -193.3137 L436.2946 -277.7339" clip-path="url(#clipPath2)"/>
      <path d="M441.602 -283.7199 L429.8997 -278.058 L435.6312 -276.9857 L437.3822 -271.4239 Z" clip-path="url(#clipPath2)" stroke="none"/>
      <rect x="313.6925" y="-213.2824" clip-path="url(#clipPath2)" fill="white" width="96.0039" height="17.9688" stroke="none"/>
      <text x="315.6925" xml:space="preserve" font-size="12px" y="-200.1438" clip-path="url(#clipPath2)" stroke="none">rdfs:subclassOf</text>
      <path fill="none" d="M521.7589 -193.3137 L446.9093 -277.7339" clip-path="url(#clipPath2)"/>
      <path d="M441.602 -283.7199 L445.8217 -271.4239 L447.5728 -276.9857 L453.3043 -278.058 Z" clip-path="url(#clipPath2)" stroke="none"/>
      <rect x="473.5075" y="-213.2824" clip-path="url(#clipPath2)" fill="white" width="96.0039" height="17.9688" stroke="none"/>
      <text x="475.5075" xml:space="preserve" font-size="12px" y="-200.1438" clip-path="url(#clipPath2)" stroke="none">rdfs:subclassOf</text>
      <path fill="none" d="M281.2883 -473.0871 L281.2883 -555.4933" clip-path="url(#clipPath2)"/>
      <path d="M281.2883 -563.4933 L276.2883 -551.4933 L281.2883 -554.4933 L286.2883 -551.4933 Z" clip-path="url(#clipPath2)" stroke="none"/>
      <rect x="222.6969" y="-483.6275" clip-path="url(#clipPath2)" fill="white" width="96.0039" height="17.9688" stroke="none"/>
      <text x="224.6969" xml:space="preserve" font-size="12px" y="-470.4888" clip-path="url(#clipPath2)" stroke="none">rdfs:subclassOf</text>
    </g>
  </g>
</svg>
